# xmcd CD database file
#
# Track frame offsets:
#	200
#	14600
#	33457
#	44325
#	61262
#	82345
#	92460
#	108040
#	126222
#	143707
#	196315
#	215057
#	244815
#	252422
#
# Disc length: 3533 seconds
#
# Revision: 3
# Processed by: cddbd v1.5.2PL0 Copyright (c) Steve Scherf et al.
# Submitted via: CDex 1.70beta2
#
DISCID=c70dcb0e
DTITLE=Various Artist - Angels In The Architecture
DYEAR=1987
DGENRE=New Age
TTITLE0=Harold Budd - The Gunfighter
TTITLE1=Harold Budd and Brian Eno - The Plateaux Of Mirror
TTITLE2=Roger Eno - Voices
TTITLE3=Roger Eno - A Place In The Wilderness
TTITLE4=Bill Bruford and Patrick Moraz - Split Seconds
TTITLE5=Hans-Joachim Rodelius - Kleine Blume Irgendwo
TTITLE6=Jon Hassell and Brian Eno - Delta Rain Dream
TTITLE7=Michael Brook - Distant Village
TTITLE8=Penguin Cafe Orchestra - Prelude And Yodel
TTITLE9=Penguin Cafe Orchestra - The Sound Of Someone You Love Who's Going Away And It Doesn't Matter
TTITLE10=Phil Manzanera - Europe 80-1
TTITLE11=Robert Fripp - 1988
TTITLE12=Robert Fripp - The Chords That Bind
TTITLE13=Laraaji - Meditation II
EXTD=YEAR: 1987
EXTT0=
EXTT1=
EXTT2=
EXTT3=
EXTT4=
EXTT5=
EXTT6=
EXTT7=
EXTT8=
EXTT9=
EXTT10=
EXTT11=
EXTT12=
EXTT13=
PLAYORDER=
